P2
16 16
255
92
7
37
46
10
64
73
165
92
100
109
118
127
136
145
154
11
20
70
162
47
56
135
74
73
100
91
20
127
136
145
154
11
20
29
38
47
56
65
74
94
100
109
118
73
64
145
154
11
20
29
38
47
56
135
74
95
100
10
118
127
64
55
154
11
20
29
38
153
56
65
74
96
100
10
118
127
136
145
46
11
20
29
38
153
56
135
74
97
100
109
118
127
136
145
154
11
20
29
162
47
56
135
74
98
100
109
118
127
136
145
46
11
20
29
38
153
56
65
74
99
100
109
118
127
136
145
154
11
20
29
38
47
144
135
74
100
100
10
82
127
136
55
154
11
12
37
44
35
64
73
165
91
100
109
118
127
136
145
154
19
28
37
44
35
64
73
165
91
100
109
118
127
136
55
154
7
52
37
44
55
64
73
165
91
100
109
118
73
136
145
154
21
28
37
44
55
64
73
165
91
100
109
118
73
136
55
154
21
28
37
46
55
64
73
165
91
100
109
82
127
136
55
154
19
28
37
46
55
64
73
165
91
100
109
118
73
136
145
154
41
28
37
46
55
64
73
165
91
100
109
118
127
64
55
154
