P2
32 16
255
121 30 40 50 60 70 80 90 101 110 120 130 140 150 160 170 20 30 40 50 60 70 80 90 100 110 120 130 140 150 160 170
20 30 40 50 60 70 80 90 102 110 120 130 140 150 160 170 20 30 40 50 60 70 80 90 100 110 120 130 140 150 160 170
20 30 40 50 60 70 80 90 103 110 120 130 140 150 160 170 20 30 40 50 60 70 80 90 100 110 120 130 140 150 160 170
20 30 40 50 60 70 80 90 104 110 120 130 140 150 160 170 20 30 40 50 60 70 80 90 100 110 120 130 140 150 160 170
20 30 40 50 60 70 80 90 105 110 120 130 140 150 160 170 20 30 40 50 60 70 80 90 100 110 120 130 140 150 160 170
20 30 40 50 60 70 80 90 106 110 120 130 140 150 160 170 20 30 40 50 60 70 80 90 100 110 120 130 140 150 160 170
20 30 40 50 60 70 80 90 107 110 120 130 140 150 160 170 20 30 40 50 60 70 80 90 100 110 120 130 140 150 160 170
20 30 40 50 60 70 80 90 108 110 120 130 140 150 160 170 20 30 40 50 60 70 80 90 100 110 120 130 140 150 160 170
20 30 40 50 60 70 80 90 109 110 120 130 140 150 160 170 20 30 40 50 60 70 80 90 100 110 120 130 140 150 160 170
20 30 40 50 60 70 80 90 100 110 120 130 140 150 160 170 20 30 40 50 60 70 80 90 100 110 120 130 140 150 160 170
20 30 40 50 60 70 80 90 100 110 120 130 140 150 160 170 20 30 40 50 60 70 80 90 100 110 120 130 140 150 160 170
20 30 40 50 60 70 80 90 100 110 120 130 140 150 160 170 20 30 40 50 60 70 80 90 100 110 120 130 140 150 160 170
20 30 40 50 60 70 80 90 100 110 120 130 140 150 160 170 20 30 40 50 60 70 80 90 100 110 120 130 140 150 160 170
20 30 40 50 60 70 80 90 100 110 120 130 140 150 160 170 20 30 40 50 60 70 80 90 100 110 120 130 140 150 160 170
20 30 40 50 60 70 80 90 100 110 120 130 140 150 160 170 20 30 40 50 60 70 80 90 100 110 120 130 140 150 160 170
20 30 40 50 60 70 80 90 100 110 120 130 140 150 160 170 20 30 40 50 60 70 80 90 100 110 120 130 140 150 160 170