P2
16 16
255
213
23
3
4
50
6
7
255
9
10
11
12
13
14
15
16
9
10
110
212
13
14
215
16
29
210
211
150
13
14
15
16
9
10
11
12
13
14
15
16
9
10
11
12
213
214
15
16
9
10
11
12
13
14
215
16
9
10
110
12
13
214
215
16
9
10
11
12
213
14
15
16
9
10
110
12
13
14
15
216
9
10
11
12
213
14
215
16
9
10
11
12
13
14
15
16
9
10
11
212
13
14
215
16
9
10
11
12
13
14
15
216
9
10
11
12
213
14
15
16
9
10
11
12
13
14
15
16
9
10
11
12
13
214
215
16
9
10
110
212
13
14
215
16
31
42
3
94
25
6
7
255
9
10
11
12
13
14
15
16
1
2
3
94
25
6
7
255
9
10
11
12
13
14
215
16
13
82
3
94
5
6
7
255
9
10
11
12
213
14
15
16
41
2
3
94
5
6
7
255
9
10
11
12
213
14
215
16
41
2
3
4
5
6
7
255
9
10
11
212
13
14
215
16
1
2
3
4
5
6
7
255
9
10
11
12
213
14
15
16
61
2
3
4
5
6
7
255
9
10
11
12
13
214
215
16
